<svg width="225" height="28" viewBox="0 0 225 28" fill="none" xmlns="http://www.w3.org/2000/svg">
<path d="M1.86 27L0.0240002 0.755999H9.024L9.168 17.712L9.204 19.836H9.564L16.152 0.755999H26.124L26.736 20.016H27.096L27.78 17.82L33.72 0.755999H43.332L31.776 27H19.68L19.464 13.968L19.428 11.232H19.068L18.24 13.968L13.524 27H1.86ZM41.0283 27L45.7083 0.755999H69.3603L68.2083 7.272H53.1243L52.5123 10.692H65.2923L64.2843 16.848H51.4683L50.8203 20.484H65.8323L64.7163 27H41.0283ZM68.3095 27L72.9895 0.755999H81.5575L77.9215 21.384L76.7695 20.16H91.5295L90.3775 27H68.3095ZM108.366 27.36C105.462 27.36 102.93 26.832 100.77 25.776C98.6343 24.696 96.9783 23.208 95.8023 21.312C94.6263 19.392 94.0383 17.16 94.0383 14.616V14.256C94.0383 12.168 94.3863 10.272 95.0823 8.568C95.7783 6.864 96.7863 5.412 98.1063 4.212C99.4263 2.988 101.034 2.052 102.93 1.404C104.85 0.731999 107.034 0.395999 109.482 0.395999C112.146 0.395999 114.522 0.815999 116.61 1.656C118.698 2.472 120.39 3.624 121.686 5.112C123.006 6.6 123.798 8.34 124.062 10.332H115.206C114.99 9.636 114.618 9.048 114.09 8.568C113.586 8.088 112.938 7.728 112.146 7.488C111.378 7.224 110.478 7.092 109.446 7.092C108.174 7.092 107.106 7.284 106.242 7.668C105.402 8.028 104.754 8.532 104.298 9.18C103.842 9.828 103.542 10.56 103.398 11.376L102.786 14.76C102.642 15.648 102.666 16.452 102.858 17.172C103.05 17.892 103.398 18.516 103.902 19.044C104.43 19.548 105.09 19.944 105.882 20.232C106.698 20.496 107.646 20.628 108.726 20.628C109.662 20.628 110.514 20.52 111.282 20.304C112.05 20.088 112.698 19.764 113.226 19.332C113.778 18.876 114.15 18.336 114.342 17.712H123.198C122.934 19.248 122.382 20.616 121.542 21.816C120.726 23.016 119.658 24.036 118.338 24.876C117.042 25.692 115.542 26.316 113.838 26.748C112.158 27.156 110.334 27.36 108.366 27.36ZM139.903 27.36C137.023 27.36 134.503 26.832 132.343 25.776C130.183 24.696 128.503 23.196 127.303 21.276C126.103 19.356 125.503 17.136 125.503 14.616V14.256C125.503 12.168 125.839 10.272 126.511 8.568C127.207 6.864 128.215 5.412 129.535 4.212C130.879 2.988 132.523 2.052 134.467 1.404C136.411 0.731999 138.643 0.395999 141.163 0.395999C144.067 0.395999 146.599 0.935999 148.759 2.016C150.919 3.072 152.599 4.56 153.799 6.48C154.999 8.376 155.587 10.596 155.563 13.14V13.5C155.563 15.588 155.215 17.484 154.519 19.188C153.847 20.892 152.839 22.356 151.495 23.58C150.175 24.78 148.543 25.716 146.599 26.388C144.655 27.036 142.423 27.36 139.903 27.36ZM140.119 20.628C141.463 20.628 142.555 20.448 143.395 20.088C144.235 19.704 144.871 19.188 145.303 18.54C145.759 17.892 146.059 17.16 146.203 16.344L146.779 12.96C146.947 12.096 146.935 11.304 146.743 10.584C146.551 9.864 146.203 9.24 145.699 8.712C145.195 8.184 144.547 7.788 143.755 7.524C142.963 7.236 142.051 7.092 141.019 7.092C139.675 7.092 138.571 7.284 137.707 7.668C136.843 8.028 136.183 8.532 135.727 9.18C135.295 9.828 135.007 10.56 134.863 11.376L134.287 14.76C134.119 15.648 134.131 16.452 134.323 17.172C134.515 17.892 134.863 18.516 135.367 19.044C135.895 19.548 136.555 19.944 137.347 20.232C138.139 20.496 139.063 20.628 140.119 20.628ZM156.728 27L161.408 0.755999H174.476L175.52 16.74H175.772L182.504 0.755999H195.824L191.108 27H182.972L185.996 9.972L186.32 8.244H185.96L185.204 9.9L177.824 27H170.048L168.752 10.044L168.572 8.244H168.248L167.924 10.08L164.9 27H156.728ZM195.716 27L200.396 0.755999H224.048L222.896 7.272H207.812L207.2 10.692H219.98L218.972 16.848H206.156L205.508 20.484H220.52L219.404 27H195.716Z" fill="url(#paint0_linear_977_64)"/>
<defs>
<linearGradient id="paint0_linear_977_64" x1="19.4318" y1="7.44037" x2="177.563" y2="73.4557" gradientUnits="userSpaceOnUse">
<stop stop-color="#9EDDFF"/>
<stop offset="0.760417" stop-color="#DDF3FF"/>
</linearGradient>
</defs>
</svg>
