<?xml version="1.0" encoding="UTF-8" standalone="no"?>
<svg
   width="78"
   height="78"
   viewBox="0 0 78 78"
   fill="none"
   version="1.1"
   id="svg1"
   sodipodi:docname="Behide-logo.svg"
   inkscape:export-filename="..\..\..\code\behide\behide-godot\Assets\Images\Behide-logo-centered.svg"
   inkscape:export-xdpi="615.38464"
   inkscape:export-ydpi="615.38464"
   xmlns:inkscape="http://www.inkscape.org/namespaces/inkscape"
   xmlns:sodipodi="http://sodipodi.sourceforge.net/DTD/sodipodi-0.dtd"
   xmlns="http://www.w3.org/2000/svg"
   xmlns:svg="http://www.w3.org/2000/svg">
  <defs
     id="defs1" />
  <sodipodi:namedview
     id="namedview1"
     pagecolor="#ffffff"
     bordercolor="#000000"
     borderopacity="0.25"
     inkscape:showpageshadow="2"
     inkscape:pageopacity="0.0"
     inkscape:pagecheckerboard="0"
     inkscape:deskcolor="#d1d1d1" />
  <path
     d="M 26.1785,7.251341 3.92139,45.803701 H 19.6323 l 15.0585,-26.0794 c 0.1989,-0.3446 0.4851,-0.6308 0.8298,-0.8298 0.3446,-0.1989 0.7355,-0.3037 1.1334,-0.3037 h 6.5467 L 51.0562,4.983399 H 30.1066 c -0.7962,10e-7 -1.5784,0.209592 -2.2679,0.607692 -0.6896,0.39811 -1.2622,0.97071 -1.6602,1.66025 z m 28.8054,4.53675 -7.8555,13.60551 15.0566,26.0794 c 0.1989,0.3446 0.3037,0.7355 0.3036,1.1334 0,0.398 -0.1047,0.7889 -0.3037,1.1335 l -2.6189,4.5358 c -0.1989,0.3446 -0.4851,0.6308 -0.8297,0.8298 -0.3447,0.1989 -0.7356,0.3037 -1.1335,0.3037 h -6.5466 l 7.8554,13.6074 h 5.2367 c 0.7962,0 1.5784,-0.2096 2.2679,-0.6077 0.6896,-0.3981 1.2621,-0.9707 1.6602,-1.6603 l 9.1646,-15.8742 c 0.3981,-0.6896 0.6076,-1.4717 0.6076,-2.2679 0,-0.7963 -0.2096,-1.5784 -0.6077,-2.268 z M -0.00634766,52.606401 11.1221,71.882501 c 0.1991,0.3448 0.4854,0.6311 0.8302,0.8302 0.3448,0.1991 0.7359,0.3039 1.1341,0.3039 h 14.4014 l -11.7832,-20.4102 z m 23.56644766,0 11.7851,20.4102 h 15.711 l -7.8555,-13.6074 -3.2734,-5.6694 c -0.1989,-0.3446 -0.4851,-0.6307 -0.8297,-0.8297 -0.3446,-0.1989 -0.7355,-0.3037 -1.1334,-0.3037 z"
     fill="#22577a"
     id="path1" />
</svg>
