<svg width="78" height="70" viewBox="0 0 78 70" fill="none" xmlns="http://www.w3.org/2000/svg">
<path d="M26.1785 3.25134L3.92139 41.8037H19.6323L34.6908 15.7243C34.8897 15.3797 35.1759 15.0935 35.5206 14.8945C35.8652 14.6956 36.2561 14.5908 36.654 14.5908H43.2007L51.0562 0.983398H30.1066C29.3104 0.983399 28.5282 1.19299 27.8387 1.59109C27.1491 1.9892 26.5765 2.5618 26.1785 3.25134ZM54.9839 7.78809L47.1284 21.3936L62.185 47.473C62.3839 47.8176 62.4887 48.2085 62.4886 48.6064C62.4886 49.0044 62.3839 49.3953 62.1849 49.7399L59.566 54.2757C59.3671 54.6203 59.0809 54.9065 58.7363 55.1055C58.3916 55.3044 58.0007 55.4092 57.6028 55.4092H51.0562L58.9116 69.0166H64.1483C64.9445 69.0166 65.7267 68.807 66.4162 68.4089C67.1058 68.0108 67.6783 67.4382 68.0764 66.7486L77.241 50.8744C77.6391 50.1848 77.8486 49.4027 77.8486 48.6065C77.8486 47.8102 77.639 47.0281 77.2409 46.3385L54.9839 7.78809ZM-0.00634766 48.6064L11.1221 67.8825C11.3212 68.2273 11.6075 68.5136 11.9523 68.7127C12.2971 68.9118 12.6882 69.0166 13.0864 69.0166H27.4878L15.7046 48.6064H-0.00634766ZM23.5601 48.6064L35.3452 69.0166H51.0562L43.2007 55.4092L39.9273 49.7398C39.7284 49.3952 39.4422 49.1091 39.0976 48.9101C38.753 48.7112 38.3621 48.6064 37.9642 48.6064H23.5601Z" fill="#22577A"/>
</svg>
