<svg width="77" height="76" viewBox="0 0 77 76" fill="none" xmlns="http://www.w3.org/2000/svg">
<path d="M57.3604 0.540026L14.3616 12.0625L25.4709 23.1719L54.5598 15.3788C54.9442 15.2759 55.3489 15.2759 55.7333 15.3789C56.1176 15.4819 56.4681 15.6842 56.7495 15.9656L61.3787 20.5948L76.5552 16.5275L61.7416 1.71393C61.1786 1.15093 60.4774 0.746057 59.7083 0.539994C58.9392 0.33393 58.1294 0.333937 57.3604 0.540026ZM74.5209 24.1165L59.3458 28.1824L51.5514 57.2699C51.4484 57.6543 51.246 58.0047 50.9647 58.2861C50.6833 58.5675 50.3328 58.7699 49.9484 58.8728L44.8893 60.2283C44.5049 60.3313 44.1002 60.3313 43.7158 60.2283C43.3315 60.1253 42.981 59.9229 42.6996 59.6415L38.0704 55.0124L34.0032 70.1889L37.7061 73.8918C38.2691 74.4548 38.9704 74.8597 39.7394 75.0658C40.5085 75.2718 41.3183 75.2718 42.0873 75.0657L59.7924 70.3213C60.5615 70.1152 61.2628 69.7103 61.8258 69.1473C62.3888 68.5842 62.7937 67.883 62.9997 67.1139L74.5209 24.1165ZM6.77403 14.0955L1.01281 35.5947C0.909753 35.9793 0.909745 36.3842 1.01279 36.7688C1.11583 37.1534 1.31829 37.5041 1.59982 37.7856L11.7832 47.9689L17.8833 25.2048L6.77403 14.0955ZM23.438 30.7594L17.3392 53.525L28.4485 64.6343L32.5158 49.4577L34.21 43.1343C34.313 42.7499 34.313 42.3453 34.21 41.9609C34.107 41.5766 33.9046 41.2261 33.6233 40.9447L23.438 30.7594Z" fill="#0A569C"/>
</svg>
