<svg width="63" height="55" viewBox="0 0 63 55" fill="none" xmlns="http://www.w3.org/2000/svg">
<path d="M21.5887 1.5332L0.442761 38.3399C0.152708 38.8448 0 39.4175 0 40.0005C0 40.5834 0.152708 41.1561 0.442761 41.661L7.15217 53.3395C7.44222 53.8444 7.85939 54.2636 8.36178 54.5551C8.86417 54.8465 9.43404 55 10.0141 55H52.1597C52.7398 55 53.3097 54.8465 53.8121 54.5551C54.3145 54.2636 54.7317 53.8444 55.0217 53.3395L61.7311 41.661C62.0212 41.1561 62.1739 40.5834 62.1739 40.0005C62.1739 39.4175 62.0212 38.8448 61.7311 38.3399L40.6584 1.66052C40.3683 1.15565 39.9511 0.736398 39.4487 0.444914C38.9463 0.153429 38.3765 -6.25187e-07 37.7964 0H24.2312C23.6956 -5.59905e-07 23.1694 0.14169 22.7055 0.410826C22.2417 0.679961 21.8565 1.06704 21.5887 1.5332ZM29.9488 11.0005L32.2244 11.0007C32.5771 11.0008 32.9236 11.0941 33.2291 11.2713C33.5345 11.4486 33.7882 11.7035 33.9646 12.0104L49.4654 38.9909C49.6418 39.2978 49.7346 39.646 49.7347 40.0005C49.7347 40.3549 49.6418 40.7032 49.4655 41.0101L48.3279 42.9906C48.1515 43.2975 47.8979 43.5524 47.5925 43.7297C47.287 43.9069 46.9405 44.0002 46.5878 44.0002H29.3743C29.0216 44.0002 28.6751 43.9069 28.3696 43.7297C28.0642 43.5524 27.8105 43.2976 27.6341 42.9906L25.9216 40.0098C25.7453 39.7029 25.4916 39.448 25.1862 39.2707C24.8807 39.0935 24.5342 39.0002 24.1815 39.0002H13.8623C13.7448 39.0002 13.6293 38.9691 13.5274 38.91C13.4256 38.851 13.3411 38.766 13.2823 38.6637C13.2235 38.5614 13.1926 38.4453 13.1926 38.3271C13.1926 38.209 13.2235 38.0929 13.2823 37.9906L28.2087 12.01C28.385 11.703 28.6386 11.4481 28.9441 11.2709C29.2496 11.0937 29.5961 11.0004 29.9488 11.0005Z" fill="#22577A"/>
</svg>
