<svg width="100" height="100" viewBox="0 0 100 100" fill="none" xmlns="http://www.w3.org/2000/svg">
<g clip-path="url(#clip0_95_59)">
<mask id="path-1-inside-1_95_59" fill="white">
<path d="M60 40H100V60H60V100H40V60H0V40H40V0H60V40Z"/>
</mask>
<path d="M60 40H100V60H60V100H40V60H0V40H40V0H60V40Z" fill="black"/>
<path d="M60 40H55V45H60V40ZM100 40H105V35H100V40ZM100 60V65H105V60H100ZM60 60V55H55V60H60ZM60 100V105H65V100H60ZM40 100H35V105H40V100ZM40 60H45V55H40V60ZM0 60H-5V65H0V60ZM0 40V35H-5V40H0ZM40 40V45H45V40H40ZM40 0V-5H35V0H40ZM60 0H65V-5H60V0ZM60 40V45H100V40V35H60V40ZM100 40H95V60H100H105V40H100ZM100 60V55H60V60V65H100V60ZM60 60H55V100H60H65V60H60ZM60 100V95H40V100V105H60V100ZM40 100H45V60H40H35V100H40ZM40 60V55H0V60V65H40V60ZM0 60H5V40H0H-5V60H0ZM0 40V45H40V40V35H0V40ZM40 40H45V0H40H35V40H40ZM40 0V5H60V0V-5H40V0ZM60 0H55V40H60H65V0H60Z" fill="white" mask="url(#path-1-inside-1_95_59)"/>
</g>
<defs>
<clipPath id="clip0_95_59">
<rect width="100" height="100" fill="white"/>
</clipPath>
</defs>
</svg>
