<?xml version="1.0" standalone="no"?>
<!DOCTYPE svg PUBLIC "-//W3C//DTD SVG 20010904//EN"
 "http://www.w3.org/TR/2001/REC-SVG-20010904/DTD/svg10.dtd">
<svg version="1.0" xmlns="http://www.w3.org/2000/svg"
 width="1254.000000pt" height="1254.000000pt" viewBox="0 0 1254.000000 1254.000000"
 preserveAspectRatio="xMidYMid meet">

<g transform="translate(0.000000,1254.000000) scale(0.100000,-0.100000)"
fill="#000000" stroke="none">
<path d="M6105 10511 c-60 -32 -447 -237 -860 -456 -412 -219 -797 -423 -855
-455 -58 -32 -361 -194 -675 -360 -313 -166 -582 -314 -598 -328 -15 -14 -32
-42 -38 -62 -6 -23 -9 -559 -7 -1612 l3 -1577 21 -28 c35 -47 82 -73 133 -73
58 0 109 25 138 69 l23 34 0 1438 c0 792 3 1439 6 1439 13 0 1249 -710 2262
-1300 l452 -263 0 -811 c0 -789 1 -811 20 -851 54 -112 231 -113 284 -1 14 30
16 118 16 848 l1 813 352 201 c194 111 615 354 937 539 1138 657 1421 817
1428 810 4 -4 7 -302 7 -663 l0 -657 23 -36 c43 -71 140 -90 219 -44 78 46 73
-14 73 905 0 904 3 854 -62 903 -18 13 -154 90 -303 169 -543 292 -685 368
-945 506 -2028 1071 -1814 962 -1886 962 -53 0 -71 -7 -169 -59z m361 -389
c247 -129 974 -513 1649 -872 297 -158 585 -311 640 -340 187 -99 189 -100
168 -115 -20 -14 -315 -185 -803 -465 -179 -102 -417 -240 -530 -305 -113 -65
-454 -261 -759 -437 l-554 -319 -76 44 c-42 24 -191 110 -331 192 -630 366
-1407 815 -1920 1110 -113 65 -233 135 -268 155 l-62 38 262 140 c145 77 522
278 838 447 316 169 771 411 1010 538 239 126 458 242 485 257 28 15 53 28 56
29 3 0 91 -43 195 -97z"/>
<path d="M2279 7129 c-664 -327 -1024 -781 -969 -1224 47 -380 327 -683 872
-945 448 -215 1091 -378 1773 -450 422 -44 1070 -63 1465 -41 703 39 1410 171
2024 381 50 16 91 30 92 30 2 0 -52 -85 -120 -189 -68 -104 -126 -203 -130
-221 -22 -114 91 -219 207 -190 77 20 50 -17 464 629 139 217 143 225 143 278
0 56 -15 96 -47 125 -29 27 -937 476 -976 483 -49 10 -108 -10 -144 -47 -58
-60 -69 -134 -30 -203 21 -37 39 -49 296 -176 151 -74 276 -140 278 -146 4
-12 -341 -126 -552 -182 -380 -102 -868 -186 -1282 -221 -377 -31 -991 -31
-1366 0 -1110 95 -2032 395 -2427 790 -127 129 -185 251 -183 390 2 152 72
281 242 451 133 132 292 244 506 355 182 94 205 118 205 217 0 96 -70 167
-165 167 -44 0 -73 -10 -176 -61z"/>
<path d="M9790 6880 c-395 -39 -747 -347 -824 -722 -12 -58 -16 -138 -16 -326
l0 -249 -59 -6 c-32 -4 -85 -16 -117 -28 -80 -30 -171 -121 -205 -204 l-24
-60 -3 -785 c-3 -840 -2 -864 46 -953 35 -66 120 -141 190 -169 l57 -23 1060
0 1060 0 57 27 c76 35 151 107 185 177 l28 56 0 855 0 855 -28 53 c-58 110
-171 185 -298 198 l-67 6 -4 272 c-5 259 -6 275 -32 361 -131 434 -549 710
-1006 665z m250 -365 c91 -24 178 -73 250 -142 80 -75 123 -138 158 -231 25
-64 26 -78 30 -314 l4 -248 -591 0 -591 0 0 231 c0 302 11 349 116 488 76 101
195 180 324 215 71 19 230 20 300 1z m845 -2055 l0 -755 -995 0 -995 0 -3 745
c-1 410 0 751 3 758 3 10 208 12 997 10 l993 -3 0 -755z"/>
<path d="M9815 4956 c-109 -28 -196 -100 -240 -199 -41 -91 -40 -182 4 -271
20 -40 50 -81 79 -106 l47 -42 5 -147 c5 -143 6 -149 33 -184 37 -49 81 -71
142 -71 64 0 119 27 151 73 23 34 24 44 24 175 l0 139 58 57 c72 70 103 133
110 221 16 223 -201 410 -413 355z"/>
<path d="M6230 4244 c-58 -10 -80 -19 -97 -39 l-23 -26 0 -446 c0 -396 -2
-444 -15 -439 -9 3 -125 70 -258 149 -347 206 -411 244 -982 574 l-260 151
-130 7 c-134 6 -530 41 -597 51 -21 4 -38 4 -38 1 0 -3 107 -67 238 -143 470
-272 1433 -834 1737 -1014 171 -100 334 -195 364 -211 64 -34 133 -38 189 -11
20 10 318 180 662 377 344 197 695 398 780 447 179 102 204 128 204 212 0 97
-67 166 -162 166 -57 0 -32 13 -914 -491 -268 -154 -490 -279 -493 -279 -3 0
-5 211 -5 468 l0 469 -23 21 c-27 26 -63 27 -177 6z"/>
</g>
</svg>
