<svg width="189" height="200" viewBox="0 0 189 200" fill="none" xmlns="http://www.w3.org/2000/svg">
<g filter="url(#filter0_ii_307_559)">
<path d="M155.982 179.532H32.994C29.1462 179.532 25.3662 178.519 22.0339 176.595C18.7016 174.671 15.9344 171.904 14.0105 168.572L2.93675 149.391C1.01285 146.059 0 142.279 0 138.431C0 134.584 1.01285 130.803 2.93675 127.471L64.4309 20.9601C66.3548 17.6278 69.122 14.8607 72.4543 12.9368C75.7866 11.0129 79.5666 10 83.4145 10H105.562C109.41 10 113.19 11.0129 116.522 12.9368C119.854 14.8607 122.622 17.6278 124.545 20.9601L186.04 127.471C187.964 130.803 188.976 134.584 188.976 138.431C188.976 142.279 187.964 146.059 186.04 149.391L174.966 168.572C173.042 171.904 170.275 174.671 166.942 176.595C163.61 178.519 159.83 179.532 155.982 179.532Z" fill="url(#paint0_linear_307_559)"/>
</g>
<g filter="url(#filter1_dii_307_559)">
<path d="M121.633 64H65.6291C59.4431 64 54.4283 69.0147 54.4283 75.2007C54.4283 81.3867 59.4431 86.4015 65.6291 86.4015H121.633C127.819 86.4015 132.833 81.3867 132.833 75.2007C132.833 69.0147 127.819 64 121.633 64Z" fill="#00FFF0"/>
<path d="M88.0305 144.602L60.0287 96.1016C56.9357 90.7444 50.0854 88.9088 44.7282 92.0018C39.371 95.0948 37.5355 101.945 40.6285 107.302L68.6303 155.803C71.7233 161.16 78.5736 162.996 83.9308 159.903C89.288 156.81 91.1235 149.959 88.0305 144.602Z" fill="#00FFF0"/>
<path d="M99.2313 144.602L127.233 96.1016C130.326 90.7444 137.176 88.9088 142.534 92.0018C147.891 95.0948 149.726 101.945 146.633 107.302L118.632 155.803C115.539 161.16 108.688 162.996 103.331 159.903C97.9738 156.81 96.1383 149.959 99.2313 144.602Z" fill="#00FFF0"/>
</g>
<defs>
<filter id="filter0_ii_307_559" x="-7.5246" y="-0.746247" width="204.026" height="191.024" filterUnits="userSpaceOnUse" color-interpolation-filters="sRGB">
<feFlood flood-opacity="0" result="BackgroundImageFix"/>
<feBlend mode="normal" in="SourceGraphic" in2="BackgroundImageFix" result="shape"/>
<feColorMatrix in="SourceAlpha" type="matrix" values="0 0 0 0 0 0 0 0 0 0 0 0 0 0 0 0 0 0 127 0" result="hardAlpha"/>
<feOffset dx="7.5246" dy="10.7462"/>
<feGaussianBlur stdDeviation="6.55937"/>
<feComposite in2="hardAlpha" operator="arithmetic" k2="-1" k3="1"/>
<feColorMatrix type="matrix" values="0 0 0 0 0 0 0 0 0 0.20152 0 0 0 0 0.5038 0 0 0 1 0"/>
<feBlend mode="normal" in2="shape" result="effect1_innerShadow_307_559"/>
<feColorMatrix in="SourceAlpha" type="matrix" values="0 0 0 0 0 0 0 0 0 0 0 0 0 0 0 0 0 0 127 0" result="hardAlpha"/>
<feOffset dx="-7.5246" dy="-10.7462"/>
<feGaussianBlur stdDeviation="6.55937"/>
<feComposite in2="hardAlpha" operator="arithmetic" k2="-1" k3="1"/>
<feColorMatrix type="matrix" values="0 0 0 0 0 0 0 0 0 0.0781 0 0 0 0 0.19525 0 0 0 1 0"/>
<feBlend mode="normal" in2="effect1_innerShadow_307_559" result="effect2_innerShadow_307_559"/>
</filter>
<filter id="filter1_dii_307_559" x="20.632" y="46.8636" width="164.054" height="152.449" filterUnits="userSpaceOnUse" color-interpolation-filters="sRGB">
<feFlood flood-opacity="0" result="BackgroundImageFix"/>
<feColorMatrix in="SourceAlpha" type="matrix" values="0 0 0 0 0 0 0 0 0 0 0 0 0 0 0 0 0 0 127 0" result="hardAlpha"/>
<feOffset dx="9.02803" dy="10.3856"/>
<feGaussianBlur stdDeviation="13.761"/>
<feColorMatrix type="matrix" values="0 0 0 0 0 0 0 0 0 0.2 0 0 0 0 0.188 0 0 0 0.5935 0"/>
<feBlend mode="normal" in2="BackgroundImageFix" result="effect1_dropShadow_307_559"/>
<feBlend mode="normal" in="SourceGraphic" in2="effect1_dropShadow_307_559" result="shape"/>
<feColorMatrix in="SourceAlpha" type="matrix" values="0 0 0 0 0 0 0 0 0 0 0 0 0 0 0 0 0 0 127 0" result="hardAlpha"/>
<feOffset dx="4.83501" dy="5.56204"/>
<feGaussianBlur stdDeviation="3.68489"/>
<feComposite in2="hardAlpha" operator="arithmetic" k2="-1" k3="1"/>
<feColorMatrix type="matrix" values="0 0 0 0 0 0 0 0 0 1 0 0 0 0 1 0 0 0 1 0"/>
<feBlend mode="normal" in2="shape" result="effect2_innerShadow_307_559"/>
<feColorMatrix in="SourceAlpha" type="matrix" values="0 0 0 0 0 0 0 0 0 0 0 0 0 0 0 0 0 0 127 0" result="hardAlpha"/>
<feOffset dx="-4.83501" dy="-5.56204"/>
<feGaussianBlur stdDeviation="3.68489"/>
<feComposite in2="hardAlpha" operator="arithmetic" k2="-1" k3="1"/>
<feColorMatrix type="matrix" values="0 0 0 0 0 0 0 0 0 0.830312 0 0 0 0 0.780494 0 0 0 1 0"/>
<feBlend mode="normal" in2="effect2_innerShadow_307_559" result="effect3_innerShadow_307_559"/>
</filter>
<linearGradient id="paint0_linear_307_559" x1="49.4049" y1="-21.0342" x2="142.626" y2="127.368" gradientUnits="userSpaceOnUse">
<stop stop-color="#00173B"/>
<stop offset="1" stop-color="#003078"/>
</linearGradient>
</defs>
</svg>
